# xmcd
#
# Track frame offsets:
#	150
#	20516
#	30840
#	50902
#	64103
#	78355
#	90536
#	110753
#	126829
#	144670
#	153504
#	160716
#	175284
#	195491
#	210464
#	226648
#	245923
#	252709
#	271251
#
# Disc length: 3754 seconds
#
# Revision: 1
# Processed by: cddbd v1.4PL0 Copyright (c) Steve Scherf et al.
# Submitted via: audiograbber 1.80
#
DISCID=060ea813
DTITLE=Various Artist - Oh Brother, Where Art Thou? [SOUNDTRACK]
DYEAR=1900
DGENRE=
TTITLE0=J. Carter and Prisoners - Po Lazarus
TTITLE1=Harry McLintock - Big Rock Candy Mountain
TTITLE2=Norman Blake - You Are My Sunshine
TTITLE3=Alison Krauss - Down to the River to Pray
TTITLE4=Soggy Bottom Boys and Dan Tyminski  - I am a Man of Constant Sorrow
TTITLE5=Chris Thomas King - Hard Time Killing Floor Blues
TTITLE6=Man of Constant Sorrow - Norman Blake 
TTITLE7=The Whites  - Keep on the Sunny Sid
TTITLE8=I'll Fly Away - Gillian Welch and Alison Krauss 
TTITLE9=Don't Leave Nobody but the Baby - Gillian Welsh, Alison Krauss, and Emmyl
TTITLE9=ou Harris 
TTITLE10=In the Highways - The Peasall Sisters 
TTITLE11=I am Weary - The Cox Family 
TTITLE12=I am a Man of Constant Sorrow  - John Hartford 
TTITLE13=O Death  - Ralph Stanley 
TTITLE14=In the Jailhouse Now  - Soggy Bottom Boys and Tim Blake Nelson 
TTITLE15=I am a Man of Constant Sorrow  - Soggy Bottom Boys and Dan Tyminski 
TTITLE16=Indian War Whoop  - John Hartford
TTITLE17=Lonesome Valley  - The Fairfield Four
TTITLE18=Angel Band - The Stanley Brothers
EXTD=
EXTT0=
EXTT1=
EXTT2=
EXTT3=
EXTT4=
EXTT5=
EXTT6=
EXTT7=
EXTT8=
EXTT9=
EXTT10=
EXTT11=
EXTT12=
EXTT13=
EXTT14=
EXTT15=
EXTT16=
EXTT17=
EXTT18=
PLAYORDER=
